<svg
        width="140px"
        height="40px"
        viewBox="0 0 80.632179 22.879913"
        version="1.1"
        id="svg1"
        inkscape:version="1.4 (86a8ad7, 2024-10-11)"
        sodipodi:docname="logo.svg"
        xmlns:inkscape="http://www.inkscape.org/namespaces/inkscape"
        xmlns:sodipodi="http://sodipodi.sourceforge.net/DTD/sodipodi-0.dtd"
        xmlns="http://www.w3.org/2000/svg"
        xmlns:svg="http://www.w3.org/2000/svg">
    <sodipodi:namedview
            id="namedview1"
            pagecolor="#ffffff"
            bordercolor="#000000"
            borderopacity="0.25"
            inkscape:showpageshadow="2"
            inkscape:pageopacity="0.0"
            inkscape:pagecheckerboard="0"
            inkscape:deskcolor="#d1d1d1"
            inkscape:document-units="mm"
            inkscape:zoom="0.71891835"
            inkscape:cx="370.00029"
            inkscape:cy="207.95129"
            inkscape:window-width="1920"
            inkscape:window-height="1009"
            inkscape:window-x="-8"
            inkscape:window-y="83"
            inkscape:window-maximized="1"
            inkscape:current-layer="layer1" />
    <defs
            id="defs1" />
    <g
            inkscape:label="Слой 1"
            inkscape:groupmode="layer"
            id="layer1"
            transform="translate(-6.9168328,-5.0628445)">
        <path
                style="font-style:italic;font-size:29.415px;font-family:'Ease Bold';-inkscape-font-specification:'Ease Bold, Italic';display:inline;fill:#f4d7d7;stroke-width:0.344707"
                d="m 19.977524,5.1968405 c 2.39348,0 4.72668,1.159349 5.95867,3.347948 1.23137,2.1662665 1.71148,4.7699725 1.18009,7.9412065 -0.53077,3.193568 -1.18711,6.025929 -3.14007,8.236872 -1.93573,2.21092 -5.33646,3.186267 -7.72994,3.186267 h -2.60873 c -2.39348,0 -4.2065203,-1.10546 -5.4391403,-3.316391 -1.21539,-2.210931 -1.56631,-4.91318 -1.05276,-8.106748 0.5314,-3.171234 1.76559,-5.839991 3.7025703,-8.0062565 1.95358,-2.188599 4.12711,-3.282898 6.52059,-3.282898 z m -2.73816,16.6489875 c 1.06759,0 2.01143,-0.42432 2.83149,-1.27296 0.83728,-0.84864 1.41054,-2.210931 1.71979,-4.086873 0.2798,-1.69728 0.14034,-2.992573 -0.41839,-3.885879 -0.55872,-0.893305 -1.35466,-1.339935 -2.38782,-1.339958 l -1.63284,-3.4e-5 c -1.05037,-2.3e-5 -2.06725,0.38159 -2.9205,1.274896 -0.83666,0.870962 -1.46825,2.231328 -1.76464,3.950941 -0.29204,1.875942 -0.23298,3.108109 0.30728,3.956749 0.55748,0.84864 1.17484,1.403084 2.24244,1.403084 z m 19.01007,0 11.03204,-0.09202 -1.36112,6.063306 -10.66401,0.09202 c -2.39338,0.02061 -4.85058,-1.10546 -6.08319,-3.316391 -1.21539,-2.210931 -1.5577,-4.91318 -1.02693,-8.106748 0.51418,-3.171234 1.83175,-5.931997 3.76874,-8.0982635 1.95357,-2.188599 4.67915,-3.190891 7.07263,-3.190891 h 10.84803 l -1.91317,6.1553245 -9.00787,-0.09202 c -1.03312,-0.01025 -2.4364,0.446653 -3.28966,1.339959 -0.85325,0.893305 -1.41978,2.188598 -1.69958,3.885879 -0.30925,1.875941 -0.19374,3.238232 0.34652,4.086873 0.55748,0.84864 0.90998,1.27296 1.97757,1.27296 z m 20.04328,0 h 17.70452 l -1.36018,6.004804 -17.33649,0.09202 c -2.39346,0.01264 -4.20654,-1.105471 -5.43915,-3.316402 -1.21601,-2.233264 -1.55832,-4.935513 -1.02693,-8.106748 0.51418,-3.171235 1.73944,-5.851151 3.6758,-8.0397505 1.95358,-2.188599 4.12711,-3.282898 6.52059,-3.282898 h 9.37591 l -1.63715,5.9713105 -7.62776,-1.1e-5 c -1.03316,0 -1.91594,0.53866 -2.76919,1.431965 -0.85325,0.893306 -1.45757,2.107752 -1.73675,3.827366 -0.30925,1.875941 -0.67611,3.330239 -0.13585,4.178879 0.55686,0.826308 0.72503,1.239467 1.79263,1.239467 z m 23.2426,-16.7829835 c 2.44514,0 5.08645,1.016141 6.45184,3.048411 1.36538,2.0322705 1.88174,4.4053385 1.36507,7.4872425 l -2.21853,12.344141 h -7.09147 l 1.75896,-8.211123 -12.21221,-0.130123 0.90269,-4.209242 c 0.65468,-3.052692 1.24212,-5.5739235 3.26894,-7.6061935 2.02682,-2.03227 5.31235,-2.723113 7.77471,-2.723113 z m -1.53913,8.9352765 3.61477,0.06901 c 0.19544,0.0034 0.30147,-1.654984 -0.70105,-2.745537 -0.54244,-0.590067 -1.40779,-0.750597 -2.36627,-0.831819 -0.66001,0 -2.04466,0.31219 -2.54428,0.652213 -0.856,0.582505 -1.32957,1.562419 -1.70512,2.810131 z"
                id="text1"
                aria-label="OCCA"
                sodipodi:nodetypes="scccsscccssscsssscccsssccscccsccssscssscscccsccssccsscccccccssccsscscc" />
    </g>
</svg>
